# xmcd CD database file
#
# Track frame offsets:
#	150
#	15303
#	34974
#	51249
#	65749
#	84979
#	99082
#	111335
#	126398
#	143474
#	156236
#
# Disc length: 2413 seconds
#
# Revision: 0
# Processed by: cddbd v1.5.1PL0 Copyright (c) Steve Scherf et al.
# Submitted via: CDex 1.51
#
DISCID=8c096b0b
DTITLE=Monsterbot - Rhomboids
DYEAR=2005
DGENRE=OPM
TTITLE0=You're Always Right
TTITLE1=Robotics
TTITLE2=All For This, All For Nothing
TTITLE3=Fever
TTITLE4=Burning
TTITLE5=I Wonder
TTITLE6=Mannerisms
TTITLE7=Better Days
TTITLE8=Let's Get Paid
TTITLE9=Epekto
TTITLE10=Doodoot
EXTD=YEAR: 2005
EXTT0=
EXTT1=
EXTT2=
EXTT3=
EXTT4=
EXTT5=
EXTT6=
EXTT7=
EXTT8=
EXTT9=
EXTT10=
PLAYORDER=
